<!DOCTYPE svg PUBLIC "-//W3C//DTD SVG 1.1//EN" "http://www.w3.org/Graphics/SVG/1.1/DTD/svg11.dtd">
<!-- Uploaded to: SVG Repo, www.svgrepo.com, Transformed by: SVG Repo Mixer Tools -->
<svg fill="#ffffff" version="1.1" id="Layer_1" xmlns="http://www.w3.org/2000/svg" xmlns:xlink="http://www.w3.org/1999/xlink" width="800px" height="800px" viewBox="0 0 256 213" enable-background="new 0 0 256 213" xml:space="preserve" stroke="#ffffff">
<g id="SVGRepo_bgCarrier" stroke-width="0"/>
<g id="SVGRepo_tracerCarrier" stroke-linecap="round" stroke-linejoin="round"/>
<g id="SVGRepo_iconCarrier"> <path d="M145.649,2c0,0-36.497,0-36.298,0C99.978,2,92,7.513,92,16.275V41H27.165C14.138,41,2,52.056,2,66.666 c0,0.395,0,117.569,0,117.569C2,200.523,14.171,211,27,211h201.947c12.772,0,25.053-9.589,25.053-26.07c0,0,0-118.461,0-118.961 C253.902,51.187,241.817,40,228.849,40H163V16.275C163,7.513,155.222,2,145.649,2z M105,16h45v25h-45V16z M180.735,85.037 c12.328,14.224,10.589,35.613-3.372,47.888L127.21,182.71l-48.573-49.785c-13.961-12.275-15.699-33.875-3.372-47.888 c12.275-13.961,33.927-15.647,47.888-3.372L128,85.88l4.847-4.215C147.071,69.338,168.46,71.077,180.735,85.037z M134.059,121.902 h17.334l-40.282,41.246l12.234-29.674h-16.451l24.689-41.246h19.81L134.059,121.902z"/> </g>
</svg>