<!DOCTYPE svg PUBLIC "-//W3C//DTD SVG 1.1//EN" "http://www.w3.org/Graphics/SVG/1.1/DTD/svg11.dtd">
<!-- Uploaded to: SVG Repo, www.svgrepo.com, Transformed by: SVG Repo Mixer Tools -->
<svg fill="#ffffff" height="800px" width="800px" version="1.1" id="Capa_1" xmlns="http://www.w3.org/2000/svg" xmlns:xlink="http://www.w3.org/1999/xlink" viewBox="0 0 193.851 193.851" xml:space="preserve" stroke="#ffffff">
<g id="SVGRepo_bgCarrier" stroke-width="0"/>
<g id="SVGRepo_tracerCarrier" stroke-linecap="round" stroke-linejoin="round"/>
<g id="SVGRepo_iconCarrier"> <path d="M176.84,133.23h-50.168L83.126,28.094c-0.761-1.838-2.222-3.298-4.06-4.06c-1.838-0.761-3.904-0.761-5.741,0.001 l-7.871,3.262L56.066,4.63c-0.761-1.838-2.222-3.298-4.06-4.06c-1.838-0.76-3.903-0.761-5.741,0.001l-29.59,12.261 c-1.838,0.762-3.298,2.222-4.059,4.06c-0.761,1.838-0.76,3.902,0.002,5.74l9.395,22.663l-7.872,3.262 c-3.826,1.585-5.643,5.972-4.058,9.799l54.201,130.865c1.161,2.803,3.896,4.63,6.929,4.63H176.84c4.142,0,7.5-3.357,7.5-7.5V140.73 C184.34,136.588,180.982,133.23,176.84,133.23z M45.078,17.3l6.517,15.733l-15.726,6.515l-6.521-15.73L45.078,17.3z M26.812,59.545 l45.326-18.781L114.731,143.6c1.161,2.803,3.896,4.63,6.929,4.63h11.057v30.621h-56.49L26.812,59.545z M169.34,178.851h-21.623 V148.23h21.623V178.851z"/> </g>
</svg>