<?xml version="1.0" encoding="UTF-8"?><svg id="a" xmlns="http://www.w3.org/2000/svg" viewBox="0 0 800 800"><defs><style>.c{fill:#fff;stroke:#fff;stroke-miterlimit:88.89;stroke-width:22.22px;}</style></defs><g id="b"><path class="c" d="M444.44,347.72h-88.89c-12.27,0-22.22,9.95-22.22,22.22v133.33c0,12.27,9.95,22.22,22.22,22.22h88.89c12.27,0,22.22-9.95,22.22-22.22v-133.33c0-12.27-9.95-22.22-22.22-22.22Zm-8.89,146.67h-71.11v-115.56h71.11v115.56Z"/><path class="c" d="M749.11,311.72l-90.89-90.89c-4.14-4.11-9.73-6.42-15.56-6.44h-111.11v-43.33c.63-24.3-18.38-44.59-42.67-45.56h-181.33c-23.55,.93-41.88,20.77-40.96,44.31,.02,.42,.04,.83,.07,1.24v43.33h-109.33c-5.91-.03-11.58,2.28-15.78,6.44l-90.67,90.89c-4.16,4.19-6.48,9.87-6.44,15.78v331.33c0,24.55,19.9,44.44,44.44,44.44H711.11c24.55,0,44.44-19.9,44.44-44.44V327.27c-.02-5.83-2.34-11.42-6.44-15.56ZM311.11,169.94h177.78v44.44h-177.78v-44.44Zm400,244.44h-222.22v42.89h222.22v201.56H88.89v-201.56h222.22v-42.89H88.89v-77.78l77.78-77.78h466.67l77.78,77.78v77.78Z"/></g></svg>